# xmcd
#
# Track frame offsets:
#	150
#	14551
#	31370
#	50533
#	63866
#	77734
#	94860
#	112270
#	129583
#	148408
#
# Disc length: 2253 seconds
#
# Revision: 1
# Processed by: cddbd v1.5.1PL2 Copyright (c) Steve Scherf et al.
# Submitted via: audiograbber 1.83.01
#
DISCID=9008cb0a
DTITLE=Trevor Alguire - As Of Yesterday
DYEAR=2006
DGENRE=Country Rock
TTITLE0=Through Me
TTITLE1=Blink
TTITLE2=Two Birds
TTITLE3=Well And Loved
TTITLE4=Around The Bend
TTITLE5=The Only Thing
TTITLE6=Rosewell Street
TTITLE7=Long Time Ago
TTITLE8=On My Own
TTITLE9=Means To An End
EXTD=
EXTT0=
EXTT1=
EXTT2=
EXTT3=
EXTT4=
EXTT5=
EXTT6=
EXTT7=
EXTT8=
EXTT9=
PLAYORDER=
